<?xml version="1.0" encoding="iso-8859-1"?>
<!-- Generator: Adobe Illustrator 19.0.0, SVG Export Plug-In . SVG Version: 6.00 Build 0)  -->
<svg version="1.1" id="Capa_1" xmlns="http://www.w3.org/2000/svg" xmlns:xlink="http://www.w3.org/1999/xlink" x="0px" y="0px"
	 viewBox="0 0 512 512" style="enable-background:new 0 0 512 512;" xml:space="preserve">
<g>
	<g>
		<path d="M299.463,102.243C309.667,91.482,315.947,76.965,315.947,61c0-33.02-26.676-61-60-61c-33.358,0-60,28.006-60,61
			c0,15.965,6.28,30.482,16.484,41.243c-27.695,15.363-46.484,44.905-46.484,78.757v15c0,8.284,6.716,15,15,15h150
			c8.284,0,15-6.716,15-15v-15C345.947,147.148,327.157,117.606,299.463,102.243z M255.947,30c16.262,0,30,14.196,30,31
			c0,16.542-13.458,30-30,30s-30-13.458-30-30C225.947,44.196,239.685,30,255.947,30z M195.947,181c0-33.084,26.916-60,60-60
			s60,26.916,60,60H195.947z"/>
	</g>
</g>
<g>
	<g>
		<path d="M480.947,361h-135v-75c0-8.284-6.716-15-15-15h-150c-8.284,0-15,6.716-15,15v45h-135c-8.284,0-15,6.716-15,15v151
			c0,8.284,6.716,15,15,15c8.212,0,440.973,0,450,0c8.284,0,15-6.716,15-15V376C495.947,367.716,489.231,361,480.947,361z
			 M165.947,482h-120V361h120V482z M315.947,482h-120c0-2.753,0-178.004,0-181h120C315.947,308.935,315.947,474.408,315.947,482z
			 M465.947,482h-120v-91h120V482z"/>
	</g>
</g>
<g>
	<g>
		<path d="M157.762,211.19l-35.527-17.764l-17.765-35.528c-2.541-5.082-7.735-8.292-13.417-8.292s-10.875,3.21-13.417,8.292
			l-17.764,35.528L24.345,211.19c-5.082,2.541-8.292,7.735-8.292,13.417s3.21,10.875,8.292,13.417l35.528,17.765l17.764,35.527
			c2.541,5.082,7.735,8.292,13.417,8.292c5.681,0,10.875-3.21,13.416-8.292l17.765-35.527l35.527-17.765
			c5.082-2.541,8.292-7.735,8.292-13.416C166.053,218.925,162.843,213.731,157.762,211.19z M104.346,231.191
			c-2.903,1.451-5.256,3.805-6.708,6.708l-6.585,13.168l-6.584-13.168c-1.452-2.903-3.805-5.256-6.708-6.708l-13.168-6.585
			l13.168-6.584c2.903-1.452,5.256-3.805,6.708-6.708l6.584-13.168l6.585,13.168c1.451,2.903,3.805,5.256,6.708,6.708l13.168,6.584
			L104.346,231.191z"/>
	</g>
</g>
<g>
	<g>
		<path d="M487.762,211.19l-35.527-17.764l-17.765-35.528c-2.541-5.082-7.735-8.292-13.417-8.292s-10.875,3.21-13.417,8.292
			l-17.764,35.528l-35.528,17.764c-5.082,2.541-8.292,7.735-8.292,13.417c0,5.682,3.21,10.875,8.292,13.417l35.528,17.765
			l17.764,35.527c2.541,5.082,7.735,8.292,13.417,8.292c5.681,0,10.875-3.21,13.416-8.292l17.765-35.527l35.527-17.765
			c5.082-2.541,8.292-7.735,8.292-13.416C496.053,218.925,492.843,213.731,487.762,211.19z M434.346,231.191
			c-2.903,1.451-5.256,3.805-6.708,6.708l-6.585,13.168l-6.584-13.168c-1.452-2.903-3.805-5.256-6.708-6.708l-13.168-6.585
			l13.168-6.584c2.903-1.452,5.256-3.805,6.708-6.708l6.584-13.168l6.585,13.168c1.451,2.903,3.805,5.256,6.708,6.708l13.168,6.584
			L434.346,231.191z"/>
	</g>
</g>
<g>
</g>
<g>
</g>
<g>
</g>
<g>
</g>
<g>
</g>
<g>
</g>
<g>
</g>
<g>
</g>
<g>
</g>
<g>
</g>
<g>
</g>
<g>
</g>
<g>
</g>
<g>
</g>
<g>
</g>
</svg>
